<svg width="1118" height="559" viewBox="0 0 1118 559" fill="none" xmlns="http://www.w3.org/2000/svg">
<path d="M1579.66 268.289C1581.01 251.923 1583.22 235.641 1586.27 219.513C1588.51 202.763 1592.84 186.374 1599.14 170.712C1600.53 167.745 1605.99 167.804 1606 171.681C1605.29 187.831 1603.65 203.922 1601.11 219.881C1599.27 236.499 1598.09 253.176 1596.85 269.852C1594.42 302.789 1595.69 335.783 1593.53 368.72C1593.08 375.515 1583.61 374.498 1582.41 368.6V368.588C1576.88 335.45 1575.96 301.686 1579.66 268.284L1579.66 268.289Z" fill="#EAEAEA"/>
<path d="M1534.71 427.672L1535.61 418.042L1537.78 398.864C1539.48 385.824 1541.14 372.747 1542.99 359.72C1546.71 333.651 1550.6 307.629 1553.46 281.44C1553.87 277.612 1559.58 278.473 1559.28 282.265C1557.17 308.31 1556.08 334.402 1554.83 360.508C1554.22 373.405 1553.37 386.302 1552.63 399.187L1551.19 418.485H1551.2C1551.13 425.196 1549.71 431.824 1547 437.962C1545.01 441.934 1537.95 443.106 1536.48 437.866H1536.47C1535.34 434.588 1534.73 431.142 1534.71 427.672Z" fill="#EAEAEA"/>
<path d="M1170.61 411.807C1173.19 384.973 1183.53 359.49 1200.36 338.529C1217.17 317.569 1239.73 302.052 1265.22 293.906C1290.85 286.392 1318.15 287.074 1343.38 295.868C1368.61 304.649 1390.51 321.099 1406.07 342.957C1409.78 348.161 1413.21 353.556 1416.36 359.131C1418.05 362.218 1412.82 365.209 1410.95 362.194H1410.93C1397.47 342.394 1378.73 326.817 1356.88 317.246C1335.04 307.687 1310.96 304.504 1287.42 308.082C1264.8 312.113 1243.82 322.558 1226.88 338.206C1209.96 353.843 1197.82 374.037 1191.88 396.397C1186.25 419.487 1187.59 443.738 1195.71 466.062C1203.84 488.386 1218.37 507.767 1237.47 521.717C1257.44 535.248 1281.01 542.319 1305.07 541.996C1329.13 541.685 1352.52 533.98 1372.12 519.923C1391.03 505.961 1405.31 486.545 1413.05 464.218C1420.33 441.643 1422.47 417.702 1419.29 394.171C1418.74 388.154 1417.54 382.22 1415.7 376.465C1414.77 373.809 1416.08 370.89 1418.68 369.849C1421.28 368.82 1424.24 370.028 1425.36 372.613C1431.8 384.409 1436.26 397.174 1438.59 410.431C1440.3 423.938 1439.69 437.648 1436.77 450.941C1431.36 478.183 1417.85 503.127 1398.05 522.437C1377.66 540.945 1352.27 552.92 1325.11 556.822C1297.96 560.734 1270.26 556.391 1245.56 544.368C1221.79 531.818 1202.1 512.654 1188.81 489.156C1175.53 465.66 1169.21 438.812 1170.61 411.811L1170.61 411.807Z" fill="#EAEAEA"/>
<path d="M1244.4 351.411C1260.24 338 1280.08 330.331 1300.75 329.625C1320.67 329.003 1340.29 334.626 1356.92 345.704C1358.93 347.02 1356.97 350.418 1354.81 349.377C1325.26 336.384 1291.21 339.256 1264.21 357.034C1251.52 365.756 1241.4 377.767 1234.89 391.802C1228.4 405.835 1225.78 421.376 1227.3 436.787C1228.7 453.081 1234.86 468.587 1244.99 481.352C1255.11 494.129 1268.76 503.593 1284.22 508.557C1299.02 512.422 1314.6 511.943 1329.13 507.158C1343.67 502.372 1356.53 493.483 1366.21 481.555C1376.49 466.9 1382.03 449.397 1382.05 431.453C1382.09 413.495 1376.61 395.98 1366.38 381.289C1363.59 376.886 1369.04 370.139 1373.37 374.302C1386.21 388.048 1394.32 405.587 1396.55 424.322C1398.78 443.069 1395.01 462.042 1385.77 478.471C1376.58 494.299 1363.07 507.124 1346.84 515.404C1330.61 523.684 1312.34 527.068 1294.25 525.154C1275.06 522.797 1257.04 514.65 1242.53 501.765C1228.01 488.892 1217.71 471.892 1212.96 453.001C1208.51 434.78 1209.09 415.685 1214.63 397.789C1220.17 379.88 1230.47 363.836 1244.4 351.417L1244.4 351.411Z" fill="#EAEAEA"/>
<path d="M1270.82 371.809C1273.23 369.332 1278.48 369.703 1278.69 373.998C1277.83 380.123 1279.11 386.357 1282.3 391.632C1286.5 396.298 1293.19 397.722 1298.9 395.174C1315.05 388.091 1306.43 365.635 1306.55 352.893C1306.45 351.625 1307.17 350.44 1308.33 349.974C1309.51 349.495 1310.84 349.854 1311.63 350.835C1324.65 367.776 1325.17 401.452 1300.48 408.178C1290.38 411.085 1279.53 407.724 1272.82 399.588C1265.88 391.896 1265.06 380.423 1270.82 371.809Z" fill="#EAEAEA"/>
<path d="M1245.76 443.139C1251.09 444.036 1256.56 443.402 1261.55 441.321C1266.47 438.772 1269.85 433.963 1270.63 428.448C1270.31 422.645 1267.45 417.286 1262.83 413.816C1258.21 410.347 1252.29 409.139 1246.69 410.514C1245.03 411.077 1243.22 410.239 1242.57 408.588C1241.93 406.949 1242.68 405.083 1244.27 404.353C1248.18 402.116 1252.62 401.003 1257.12 401.147C1261.57 401.53 1265.86 402.953 1269.66 405.31C1278.17 410 1283.46 418.997 1283.47 428.759C1283.49 438.533 1278.21 447.53 1269.71 452.232C1261.52 458.644 1250.18 459.039 1241.56 453.213C1239.64 451.61 1238.98 448.93 1239.95 446.597C1240.91 444.276 1243.27 442.864 1245.76 443.139Z" fill="#EAEAEA"/>
<path d="M1303.15 453.766C1311.75 457.643 1318.25 465.084 1320.98 474.165C1323.78 482.001 1323.04 490.674 1318.97 497.912C1320.58 498.917 1321.62 500.592 1321.82 502.483C1322.23 506.072 1319.69 509.314 1316.13 509.757C1312.59 510.068 1309.43 507.543 1308.9 504.014L1309.19 501.358C1307.58 500.198 1306.75 498.248 1307.01 496.286C1308.67 490.639 1309.08 484.705 1308.21 478.89C1306.91 473.483 1303.42 468.865 1298.59 466.173C1292.63 463.517 1285.82 463.673 1279.97 466.568C1274.13 469.475 1269.86 474.835 1268.32 481.211C1268.12 482.635 1266.81 483.616 1265.41 483.425C1264.74 483.329 1264.12 482.97 1263.7 482.42C1263.3 481.869 1263.12 481.175 1263.22 480.494C1263.89 471.066 1268.86 462.476 1276.68 457.248C1284.49 452.02 1294.27 450.74 1303.15 453.766Z" fill="#EAEAEA"/>
<path d="M1329.39 433.338C1333.76 425.741 1342.43 421.769 1350.99 423.468C1358.88 424.401 1365.24 430.431 1366.64 438.327C1367.21 442.335 1361.23 442.981 1360.49 439.057C1358.93 433.47 1353.6 429.833 1347.87 430.443C1341.89 431.651 1337.32 436.521 1336.43 442.598C1335.42 448.927 1336.99 455.387 1340.77 460.532C1345.01 466.657 1351.24 470.569 1355.72 476.408C1359.13 480.846 1354.2 485.907 1349.53 484.447C1339.28 480.176 1331.23 471.802 1327.33 461.333C1323.67 452.181 1324.44 441.844 1329.39 433.338Z" fill="#EAEAEA"/>
<path d="M1341.09 368.164C1343.61 366.585 1347.11 369.504 1344.98 372.124C1338.17 379.769 1336.68 390.835 1341.24 400.035C1343.71 404.031 1347.39 407.118 1351.74 408.829C1356.39 410.767 1361.7 409.522 1366.16 411.473C1367.64 412.142 1368.67 413.542 1368.88 415.181C1369.09 416.808 1368.43 418.423 1367.16 419.44C1362.17 424.19 1352.3 421.713 1346.78 419.225C1340.21 416.282 1334.86 411.137 1331.61 404.665C1325.34 391.816 1329.37 376.275 1341.09 368.164Z" fill="#EAEAEA"/>
<path d="M1148.8 374.167C1158.85 341.123 1179.25 312.242 1206.93 291.844C1234.19 271.877 1266.78 260.666 1300.46 259.698C1335 258.825 1368.82 269.676 1396.53 290.494C1424.22 311.323 1444.18 340.909 1453.22 374.528C1454.09 377.483 1449.85 379.314 1448.73 376.323L1448.71 376.335C1437.3 348.639 1418.22 324.854 1393.74 307.831C1369.93 290.197 1341.43 280.159 1311.91 279.023C1282.4 277.886 1253.22 285.699 1228.15 301.455C1202.46 317.522 1182.53 341.438 1171.26 369.707C1164.82 385.93 1161.02 403.109 1160.03 420.554C1159.38 437.985 1160.62 455.429 1163.71 472.583C1164.79 479.462 1155.43 480.97 1152.64 475.407V475.395C1138.72 443.356 1137.35 407.188 1148.8 374.169L1148.8 374.167Z" fill="#EAEAEA"/>
<path d="M175.159 411.807C177.746 384.973 188.081 359.49 204.907 338.529C221.721 317.569 244.279 302.052 269.777 293.906C295.396 286.392 322.712 287.074 347.928 295.868C373.155 304.649 395.061 321.099 410.629 342.957C414.331 348.161 417.761 353.556 420.905 359.131C422.602 362.218 417.369 365.209 415.494 362.194C402.014 342.394 383.279 326.817 361.432 317.246C339.587 307.687 315.524 304.504 291.97 308.082C269.365 312.113 248.363 322.558 231.44 338.206C214.52 353.843 202.369 374.037 196.425 396.397C188.226 427.671 193.28 460.978 210.415 488.349C227.538 515.71 255.172 534.648 286.713 540.642C318.253 546.635 350.835 539.122 376.656 519.921C395.582 505.959 409.846 486.543 417.583 464.216C424.88 441.641 427.016 417.7 423.836 394.169C423.29 388.151 422.08 382.217 420.24 376.463C419.315 373.807 420.632 370.888 423.231 369.847C425.829 368.818 428.772 370.026 429.899 372.61C436.331 384.407 440.804 397.172 443.13 410.429C444.851 423.936 444.234 437.646 441.303 450.939C435.904 478.18 422.4 503.125 402.584 522.435C382.199 540.943 356.818 552.918 329.655 556.82C302.494 560.732 274.798 556.389 250.095 544.366C226.339 531.816 206.641 512.651 193.363 489.154C180.086 465.657 173.759 438.808 175.159 411.807Z" fill="#EAEAEA"/>
<path d="M248.975 351.411C264.804 338 284.644 330.331 305.315 329.625C325.238 329.003 344.866 334.626 361.5 345.716C363.506 347.032 361.548 350.43 359.388 349.389V349.377C329.842 336.384 295.785 339.268 268.792 357.046C256.095 365.767 245.974 377.779 239.483 391.814C232.981 405.847 230.358 421.388 231.877 436.799C233.289 453.093 239.436 468.599 249.569 481.376C259.691 494.142 273.349 503.605 288.798 508.57C303.595 512.446 319.175 511.956 333.71 507.17C348.246 502.384 361.109 493.508 370.791 481.58C381.079 466.924 386.609 449.421 386.645 431.465C386.668 413.507 381.198 395.992 370.958 381.301C368.169 376.898 373.616 370.15 377.947 374.314V374.302C390.774 388.06 398.902 405.587 401.133 424.334C403.364 443.081 399.578 462.042 390.335 478.471C381.151 494.299 367.635 507.124 351.404 515.404C335.172 523.684 316.911 527.068 298.824 525.154C279.637 522.797 261.6 514.65 247.089 501.765C232.589 488.892 222.277 471.892 217.531 453.001C213.081 434.78 213.651 415.685 219.192 397.789C224.734 379.88 235.033 363.836 248.976 351.417L248.975 351.411Z" fill="#EAEAEA"/>
<path d="M275.403 371.809C277.812 369.332 283.057 369.703 283.27 373.998C282.404 380.123 283.686 386.357 286.877 391.632C291.09 396.298 297.77 397.722 303.49 395.174C319.64 388.091 311.025 365.635 311.143 352.893C311.025 351.625 311.749 350.44 312.923 349.974C314.086 349.495 315.427 349.854 316.21 350.835C329.227 367.776 329.749 401.452 305.056 408.178C294.958 411.085 284.125 407.724 277.408 399.588C270.467 391.896 269.636 380.423 275.403 371.809Z" fill="#EAEAEA"/>
<path d="M250.312 443.139C255.64 444.036 261.11 443.402 266.094 441.321C271.018 438.772 274.412 433.963 275.183 428.448C274.863 422.645 272.015 417.286 267.387 413.816C262.759 410.347 256.838 409.139 251.249 410.514C249.588 411.077 247.773 410.239 247.132 408.588C246.479 406.949 247.227 405.083 248.828 404.353C252.733 402.116 257.182 401.003 261.667 401.147C266.117 401.53 270.413 402.953 274.222 405.31C282.718 410 288.01 418.997 288.022 428.759C288.034 438.533 282.753 447.53 274.269 452.232C266.07 458.644 254.726 459.039 246.112 453.213C244.189 451.61 243.525 448.93 244.498 446.597C245.459 444.276 247.832 442.864 250.312 443.139Z" fill="#EAEAEA"/>
<path d="M307.724 453.766C316.315 457.643 322.818 465.084 325.559 474.165C328.347 482.001 327.623 490.674 323.542 497.912C325.143 498.917 326.2 500.592 326.401 502.483C326.793 506.072 324.254 509.314 320.694 509.757C317.158 510.068 314.001 507.543 313.479 504.014L313.764 501.358L313.752 501.346C312.15 500.198 311.32 498.248 311.581 496.286C313.242 490.639 313.657 484.705 312.779 478.89C311.486 473.483 307.997 468.865 303.168 466.173C297.199 463.517 290.388 463.673 284.55 466.568C278.7 469.475 274.44 474.835 272.886 481.211C272.684 482.635 271.391 483.616 269.979 483.425C269.302 483.329 268.685 482.97 268.282 482.42C267.867 481.869 267.688 481.175 267.783 480.494C268.46 471.066 273.432 462.476 281.251 457.248C289.059 452.02 298.837 450.74 307.724 453.766Z" fill="#EAEAEA"/>
<path d="M333.97 433.338C338.337 425.741 347.011 421.769 355.554 423.468C363.457 424.401 369.805 430.431 371.205 438.327C371.775 442.335 365.795 442.981 365.059 439.057C363.493 433.47 358.177 429.833 352.445 430.443C346.477 431.651 341.896 436.521 341.007 442.598C339.998 448.927 341.564 455.387 345.361 460.532C349.598 466.669 355.827 470.569 360.313 476.408C363.718 480.846 358.794 485.907 354.119 484.447L354.107 484.459C343.855 480.176 335.821 471.814 331.905 461.345C328.251 452.193 329.01 441.844 333.97 433.338Z" fill="#EAEAEA"/>
<path d="M345.635 368.164C348.162 366.585 351.662 369.504 349.539 372.136C342.716 379.781 341.232 390.847 345.789 400.035C348.257 404.043 351.947 407.13 356.302 408.853C360.953 410.767 366.257 409.535 370.719 411.473C372.202 412.143 373.235 413.542 373.437 415.181C373.65 416.808 372.986 418.423 371.716 419.44C366.732 424.19 356.86 421.713 351.342 419.225C344.768 416.282 339.405 411.138 336.166 404.665C329.9 391.816 333.935 376.276 345.635 368.164Z" fill="#EAEAEA"/>
<path d="M153.379 374.167C163.429 341.123 183.826 312.242 211.511 291.844C238.768 271.877 271.363 260.666 305.039 259.698C339.58 258.825 373.411 269.676 401.106 290.494C428.801 311.323 448.77 340.909 457.801 374.528C458.667 377.483 454.431 379.314 453.304 376.323V376.335C441.877 348.651 422.784 324.866 398.316 307.843C374.513 290.209 346.01 280.171 316.486 279.035C286.963 277.899 257.786 285.711 232.725 301.467C207.035 317.534 187.111 341.451 175.838 369.732C169.395 385.954 165.598 403.121 164.613 420.578C163.96 437.998 165.194 455.441 168.291 472.595C169.371 479.475 160.009 480.982 157.22 475.419C143.29 443.368 141.925 407.203 153.376 374.169L153.379 374.167Z" fill="#EAEAEA"/>
<path d="M686.372 441.761C713.83 435.049 741.822 430.718 770.015 428.828C798.399 426.435 826.89 425.717 855.356 426.638C912.705 428.385 969.816 434.857 1026.13 445.972C1041.87 449.01 1057.48 452.588 1072.96 456.703C1088.5 460.819 1104.12 464.791 1119.2 470.378C1120.68 471.059 1121.46 472.734 1121.04 474.326C1120.6 475.917 1119.08 476.958 1117.45 476.778C1103.59 475.235 1089.9 472.627 1076.13 470.365C1062.05 468.044 1047.94 465.939 1033.89 463.439C1006.32 458.521 978.598 454.179 950.806 450.685L950.794 450.673C895.286 443.399 839.289 440.624 783.341 442.383C767.464 442.981 751.658 443.675 735.841 445.254C720.035 446.833 704.276 448.723 688.459 450.159C683.819 450.59 681.436 443.113 686.372 441.761Z" fill="#EAEAEA"/>
<path d="M456.662 463.077C462.144 462.395 467.697 462.611 473.12 463.711L489.519 465.147C500.21 465.829 510.89 466.14 521.594 465.829C543.249 465.051 564.787 462.252 585.932 457.466C589.362 456.712 590.714 462.299 587.439 463.46C566.342 470.913 544.438 475.782 522.19 477.972C511.225 479.108 500.202 479.575 489.191 479.384C483.413 479.276 477.622 479.073 471.891 478.51H471.879C466.076 478.522 460.321 477.326 454.993 474.993C452.478 473.832 451.018 471.153 451.41 468.401C451.801 465.649 453.937 463.472 456.667 463.077L456.662 463.077Z" fill="#EAEAEA"/>
<path d="M2.5271 305.348C3.53577 297.871 4.93591 290.441 6.71582 283.119C8.48376 275.702 11.1418 268.835 13.5508 261.645C15.4019 256.129 23.8975 258.714 23.1262 264.289L22.3906 270.905L22.4026 270.893C25.642 269.864 28.9646 269.158 32.3462 268.775L42.8474 268.021C49.3618 267.531 55.8647 266.969 62.3435 266.107V266.119C75.2181 264.361 87.9738 261.729 100.503 258.235C113.389 254.694 125.932 250.243 138.425 245.518V245.506C151.229 240.936 163.617 235.241 175.449 228.494C180.005 225.754 184.977 231.891 180.527 235.289C169.575 244.023 158.054 251.99 146.01 259.133C133.539 266.168 120.38 271.862 106.721 276.133C92.9681 280.44 78.8828 283.563 64.5969 285.465C57.6315 286.422 50.6187 287.14 43.594 287.415C40.0223 287.547 36.4507 287.571 32.8911 287.439L32.8793 287.427C28.9993 287.176 25.1661 286.386 21.4996 285.082L21.3574 285.022L21.12 286.769C20.4081 293.744 19.981 300.743 19.5182 307.73C18.6282 321.99 18.6046 336.287 19.4352 350.546C20.2302 365.058 21.8915 379.51 24.407 393.819C26.7327 406.967 30.1144 419.972 32.0723 433.19C36.4388 434.841 40.7345 436.779 44.9114 438.167C53.5022 441.026 62.2235 443.575 71.0165 445.74C79.5955 447.846 88.2462 449.736 96.944 451.232C106.069 452.811 115.384 454.773 124.592 455.599C128.116 455.91 128.152 461.844 124.521 461.939V461.927C115.372 462.442 106.2 462.49 97.0508 462.071C87.451 461.389 77.9109 460.121 68.4655 458.29C59.2577 456.472 50.1564 454.151 41.1973 451.327C31.74 449.401 22.7812 445.501 14.8903 439.89C13.7511 438.933 13.0271 437.557 12.8848 436.05C12.7543 434.554 13.217 433.071 14.1781 431.91C9.71643 420.377 6.51306 408.402 4.6145 396.175C1.95654 381.328 0.449463 366.313 0.081543 351.239C-0.274414 335.901 0.533691 320.551 2.5271 305.348Z" fill="#EAEAEA"/>
<path d="M1377.2 62.9043C1380.19 58.6214 1385.02 58.442 1389.82 57.9633L1404.35 56.5875C1413.78 55.8696 1423.23 55.5346 1432.64 54.6852C1435.88 54.3981 1437.55 59.6143 1434.1 60.5475L1417.55 65.3808L1426.9 71.1353L1446.15 82.3932C1459.54 90.0022 1472.99 97.5392 1486.63 104.658C1500.05 111.656 1513.48 118.667 1527.08 125.319C1540.85 132.042 1554.58 139.436 1568.86 144.963C1573 146.566 1570.33 152.943 1566.22 151.352C1551.63 145.693 1536.62 141.23 1522.04 135.428C1507.75 129.721 1493.63 123.704 1479.78 117.016C1465.94 110.328 1452.23 103.378 1438.82 95.8645L1418.84 84.3435H1418.85C1411.77 80.7663 1405.28 76.1125 1399.61 70.5255L1393.37 72.1287C1387.92 73.5045 1383.32 75.3111 1378.36 71.8415L1378.37 71.8535C1375.64 69.6761 1375.13 65.7039 1377.2 62.9043Z" fill="#EAEAEA"/>
<path d="M768.664 24.0385C808.19 15.3288 848.297 9.55037 888.665 6.75106C928.914 3.28163 969.33 1.47497 1009.71 0.996571V0.984607C1090.13 -0.283536 1170.52 4.6335 1250.2 15.688C1272.42 18.8585 1294.66 22.2321 1316.65 26.7664C1327.92 29.0874 1339.29 31.2769 1350.44 34.1482C1361.6 37.0195 1372.75 40.3214 1384.01 42.8937C1387.75 43.7551 1387.04 49.6651 1383.17 48.9236C1363.41 45.1549 1343.16 43.181 1323.24 40.4534C1303.5 37.7496 1283.77 34.9619 1264 32.5215C1224.17 27.6163 1184.21 23.9197 1144.12 21.4432H1144.13C1064.46 16.3107 984.533 16.7054 904.912 22.6156C859.845 26.0253 815.026 31.8754 769.971 35.2731H769.983C766.957 35.5363 764.264 33.335 763.908 30.2962C763.552 27.2575 765.664 24.482 768.666 24.0391L768.664 24.0385Z" fill="#EAEAEA"/>
<path d="M26.9503 239.285C35.2566 235.17 43.8474 231.641 52.6519 228.745L78.045 219.713C95.0133 213.827 112.101 208.311 129.306 203.179C164.146 192.771 199.361 183.559 234.936 176.129H234.924C305.763 160.899 377.744 151.711 450.102 148.649C458.942 148.338 467.77 148.098 476.611 148.051C488.168 138.192 500.865 129.77 514.402 122.951C528.309 114.828 542.525 107.123 556.894 99.8607L556.882 99.8487C585.348 85.4445 614.598 72.6672 644.489 61.5649C661.351 55.2959 678.484 49.7208 695.644 44.3372L695.632 44.3253C696.415 44.0142 697.293 44.0262 698.064 44.3731C698.836 44.7081 699.441 45.3422 699.749 46.1198C700.402 47.7708 699.595 49.6251 697.969 50.2713C640.36 74.7968 584.436 103.173 530.587 135.225C523.182 139.591 515.778 143.934 508.444 148.409L507.816 148.791L511.138 148.983C521.343 149.689 531.655 150.442 541.825 151.758C551.994 153.062 562.211 154.785 572.475 155.431L574.92 156.807H575.988C617.887 160.468 660.022 163.088 702.028 165.457C743.759 167.814 785.54 169.285 827.345 169.118C862.29 168.974 897.187 167.837 932.039 165.684C932.347 158.865 933.451 152.093 934.115 145.286C935.005 136.217 935.681 127.233 935.931 118.128L935.919 118.152C936.073 100.326 935.076 82.5237 932.952 64.8304C932.774 62.7248 934.127 60.7987 936.168 60.2842C938.197 59.7577 940.309 60.8106 941.14 62.7487C947.191 80.3592 950.336 98.8427 950.443 117.482C950.597 126.646 950.146 135.823 949.09 144.927C948.437 151.674 947.144 158.35 945.234 164.858C990.158 161.843 1034.96 157.357 1079.66 151.411C1103 148.325 1126.26 144.712 1149.54 141.314C1173.04 137.88 1196.69 134.949 1220.09 131.073C1224.87 130.283 1227.04 138.215 1222.21 139.543C1212.03 142.342 1201.97 145.453 1191.72 148.049C1181.34 150.681 1170.94 153.193 1160.51 155.598C1139.72 160.395 1118.69 164.152 1097.62 167.49C1055.79 174.118 1013.74 178.999 971.532 182.444H971.543C886.607 189.635 801.266 190.592 716.198 185.304C692.703 183.76 669.281 181.631 645.903 178.939C621.886 176.128 598.238 171.988 574.469 167.657H574.48C571.858 167.31 569.912 165.013 569.983 162.345C561.368 162.154 552.694 162.872 544.103 163.542C535.216 164.224 526.316 164.594 517.417 165.193C499.547 166.377 481.675 167.047 463.771 167.729C427.89 169.105 392.075 171.629 356.313 175.326H356.336C284.999 182.695 214.373 195.808 145.111 214.565C125.911 219.746 106.82 225.333 87.835 231.315C78.2234 234.342 68.6357 237.488 59.1074 240.742C49.3419 244.104 39.7422 247.848 29.6798 250.229H29.6917C26.8794 250.552 24.2686 248.722 23.6042 245.958C22.9517 243.207 24.3638 240.383 26.9507 239.283L26.9503 239.285Z" fill="#EAEAEA"/>
<path d="M888.774 34.3905C943.215 34.3426 997.69 38.0155 1052.06 40.5637C1105.89 43.088 1159.72 45.732 1213.48 49.4167C1228.49 50.4456 1243.5 51.5223 1258.49 52.6469C1274.06 53.8313 1289.52 55.9369 1305.07 57.241C1308.05 57.4922 1308.08 62.6366 1305.01 62.6007C1291.35 62.4452 1277.72 63.1391 1264.06 62.8759C1250.69 62.6247 1237.33 62.3614 1223.95 62.0145L1203.09 61.4283H1203.11C1213.84 66.0582 1223.65 72.6384 1232.02 80.8333C1240.09 88.6456 1246.86 97.714 1252.04 107.692C1254.53 112.489 1256.61 117.478 1258.22 122.634C1259.94 128.126 1263.02 136.201 1258.9 141.154H1258.91C1256.61 144.002 1252.52 144.54 1249.57 142.386C1245.06 139.527 1245.08 132.54 1243.73 127.755C1242.38 122.958 1240.65 118.268 1238.55 113.757C1226.15 87.5808 1203.07 68.1507 1175.32 60.543L1142.16 59.2987C1088.28 57.0615 1034.41 54.6211 980.561 51.9651C949.911 50.5055 919.227 49.0818 888.683 46.1389C882.157 45.5049 882.038 34.4027 888.778 34.3907L888.774 34.3905Z" fill="#EAEAEA"/>
<path d="M931.241 225.809C932.641 221.586 938.55 224.338 937.435 228.417C932.926 246.016 929.96 263.972 928.583 282.097C926.969 299.935 927.088 317.772 926.459 335.67C926.281 340.934 918.532 340.3 917.714 335.575V335.563C913.216 298.415 917.856 260.718 931.241 225.809Z" fill="#EAEAEA"/>
<path d="M393.235 206.606C407.759 206.032 422.307 206.367 436.783 207.599C451.272 208.556 465.748 209.657 480.201 210.913C508.525 213.366 536.839 215.902 565.15 218.522C621.752 223.702 678.234 229.804 734.702 236.241C766.953 239.913 799.028 245.154 831.328 248.192C835.457 248.587 834.532 254.94 830.438 254.593C801.746 252.224 772.934 251.709 744.183 250.022C715.432 248.336 686.776 246.314 658.07 244.423C601.326 240.679 544.631 235.618 487.996 230.474C472.392 229.062 456.811 227.614 441.231 225.927H441.243C425.057 224.564 408.979 222.183 393.089 218.785C386.859 217.302 385.803 207.037 393.231 206.606L393.235 206.606Z" fill="#EAEAEA"/>
<path d="M1372.62 148.446C1385.28 148.314 1397.93 149.128 1410.47 150.874C1423.14 152.202 1435.8 153.578 1448.45 155.097C1473.74 158.124 1498.96 161.653 1524.23 164.872C1528.27 165.374 1527.33 171.356 1523.36 171.117C1498.15 169.598 1472.93 168.377 1447.73 166.655L1446.53 166.571L1446.96 167.001C1451.22 170.878 1455.7 174.503 1460.4 177.829C1470.06 184.612 1480.49 190.199 1491.47 194.482C1513.59 203.814 1537.64 207.523 1561.5 205.273C1565.35 204.771 1565.93 210.513 1562.2 211.243V211.255C1549.67 213.911 1536.89 215.155 1524.1 214.976C1511.13 214.401 1498.33 211.817 1486.15 207.307C1473.89 202.928 1462.26 196.887 1451.58 189.373C1446.5 185.82 1441.64 181.944 1437.08 177.745C1432.58 174.239 1428.75 169.944 1425.78 165.051L1410.43 163.831C1397.69 163.257 1385.01 161.737 1372.5 159.273C1366.95 157.981 1366.01 148.733 1372.62 148.445L1372.62 148.446Z" fill="#EAEAEA"/>
</svg>
