<svg width="20" height="24" viewBox="0 0 20 24" fill="none" xmlns="http://www.w3.org/2000/svg">
<path d="M19.538 19.1303L16.5432 16.0015C15.9311 15.3559 14.9276 15.334 14.2706 15.9407C13.5914 16.5776 13.12 16.9959 13.0015 17.0937C11.8592 18.0122 9.79015 16.1081 7.84341 13.5367C5.89667 10.9653 4.85939 8.69989 6.00516 7.80797C6.14968 7.70647 6.65392 7.33785 7.40247 6.82673C8.12527 6.31921 8.36394 5.33763 7.9186 4.56037L5.71008 0.806732C5.33414 0.155186 4.55746 -0.142388 3.8477 0.065516C2.8864 0.362716 1.87944 0.910257 1.40099 1.27526C-1.31372 3.44349 0.00369782 10.4099 4.59974 16.4836C9.16632 22.5343 15.2917 25.4411 18.0098 23.299C18.4846 22.9075 19.2649 22.0398 19.7798 21.1549C20.1418 20.5083 20.0549 19.6538 19.538 19.1303Z" fill="#553BF9"/>
</svg>
