<svg width="66" height="60" viewBox="0 0 66 60" fill="none" xmlns="http://www.w3.org/2000/svg">
<path d="M40.1449 59.9838C40.1166 59.9838 40.0929 60 40.0645 60H16.6255C15.4816 60 14.5539 59.0735 14.5539 57.931C14.5539 56.7886 15.4816 55.8621 16.6255 55.8621H40.0054L40.0655 55.8499C45.7867 55.8505 51.2785 53.602 55.3526 49.5906C59.4271 45.5796 61.7571 40.1278 61.8386 34.4147C61.9201 28.7015 59.7467 23.1855 55.7884 19.06C51.8301 14.9345 46.4048 12.5303 40.6862 12.3682C34.9676 12.2061 29.4142 14.2981 25.2274 18.1923C21.0408 22.0867 18.5571 27.4703 18.3131 33.1791C18.2483 34.3071 17.2888 35.1747 16.1583 35.1274C15.0271 35.0801 14.1439 34.1351 14.1739 33.0054C14.408 27.2401 16.5698 21.7196 20.3142 17.3256L19.0715 16.0845C18.6715 15.6988 18.4438 15.1689 18.4392 14.6141C18.4345 14.0588 18.653 13.5254 19.0455 13.1329C19.4386 12.7403 19.9732 12.5221 20.5286 12.5273C21.0841 12.5319 21.6147 12.7594 22.0009 13.1589L23.254 14.4092C27.5025 10.7874 32.8081 8.63356 38.3814 8.2675C43.9546 7.9015 49.4973 9.34354 54.1835 12.3788C58.8701 15.4142 62.4491 19.88 64.3885 25.1113C66.3272 30.3425 66.522 36.06 64.944 41.4103C63.366 46.7617 60.099 51.4602 55.6303 54.8066C51.1617 58.1531 45.7306 59.9687 40.1449 59.9824L40.1449 59.9838ZM49.6071 24.5853C48.7984 23.7777 47.4869 23.7777 46.6782 24.5853L40.6755 30.5797C40.4761 30.5196 40.2715 30.4781 40.0646 30.455C39.0929 30.455 38.1612 30.8406 37.4738 31.527C36.7865 32.2133 36.4004 33.1439 36.4004 34.1144C36.401 35.0853 36.7866 36.0159 37.4738 36.7023C38.1611 37.3882 39.0928 37.7738 40.0651 37.7738C41.0368 37.7738 41.9685 37.3881 42.6559 36.7018C43.3426 36.0154 43.7287 35.0849 43.7287 34.1138C43.7056 33.9077 43.6639 33.7033 43.6044 33.5042L49.6071 27.5092C50.4146 26.7016 50.4151 25.3929 49.6071 24.5853ZM36.6981 4.13794H43.4333C44.5772 4.13794 45.5049 3.21141 45.5049 2.06897C45.5049 0.926529 44.5772 0 43.4333 0H36.6981C35.5542 0 34.6265 0.926529 34.6265 2.06897C34.6265 3.21141 35.5542 4.13794 36.6981 4.13794ZM35.2172 49.6552C35.2172 49.1063 34.9993 48.5804 34.6109 48.1924C34.2219 47.8045 33.6953 47.5863 33.1456 47.5863H7.36118C6.21727 47.5863 5.28955 48.5128 5.28955 49.6552C5.28955 50.7977 6.21727 51.7242 7.36118 51.7242H33.1456C33.6953 51.7242 34.2219 51.506 34.6109 51.1181C34.9993 50.7301 35.2172 50.2042 35.2172 49.6552ZM36.0345 41.3794C36.0345 40.8304 35.816 40.3045 35.4276 39.9166C35.0392 39.5286 34.512 39.3104 33.9629 39.3104H2.07163C0.927721 39.3104 0 40.2369 0 41.3794C0 42.5218 0.927721 43.4483 2.07163 43.4483H33.9629C34.512 43.4483 35.0392 43.2301 35.4276 42.8422C35.816 42.4543 36.0345 41.9284 36.0345 41.3794Z" fill="#553BF9"/>
</svg>
