<svg width="72" height="44" viewBox="0 0 72 44" fill="none" xmlns="http://www.w3.org/2000/svg">
<path d="M1.56508 0C0.700366 0 0 0.703722 0 1.57129V37.7143C0 38.5824 0.700939 39.2856 1.56508 39.2856C2.42979 39.2856 3.13016 38.5818 3.13016 37.7143V3.14273H67.3042C68.1689 3.14273 68.8693 2.439 68.8693 1.57143C68.8693 0.703286 68.1684 0.000140229 67.3042 0.000140229H1.56494L1.56508 0ZM7.67922 6.28588C6.91059 6.35877 6.25711 7.08168 6.26102 7.85717V42.4287C6.26102 43.2514 7.00727 44 7.8261 44H70.4349C71.2538 44 72 43.2513 72 42.4287V7.85717C72 7.03451 71.2538 6.28588 70.4349 6.28588H7.67922ZM9.39118 9.42846H26.1195C21.6305 13.1833 18.7825 18.8328 18.7825 25.1428C18.7825 31.4534 21.6299 37.1094 26.1195 40.8571H9.39118V9.42846ZM46.3458 9.42846C52.2437 12.1682 56.3484 18.1712 56.3484 25.1428C56.3484 32.1417 52.2076 38.1327 46.272 40.8571H31.9893C26.0537 38.1327 21.9129 32.1417 21.9129 25.1428C21.9129 18.1712 26.0176 12.1682 31.9155 9.42846H46.3458ZM52.1427 9.42846H68.871V40.8571H52.1427C56.6322 37.1094 59.4796 31.4534 59.4796 25.1428C59.4796 18.8328 56.6316 13.1833 52.1427 9.42846ZM31.9415 14.143C31.1221 14.1814 30.4845 14.9652 30.5233 15.7884C30.5616 16.6111 31.269 17.3246 32.0884 17.2863H33.6535V25.1435H32.0884C31.2614 25.1314 30.5718 25.8845 30.5718 26.7148C30.5718 27.5451 31.2613 28.2982 32.0884 28.2861H33.6535V29.8574H32.0884C31.2242 29.8574 30.5233 30.5611 30.5233 31.4287C30.5233 32.2968 31.2243 33 32.0884 33H33.6535V36.1425C33.6415 36.9729 34.3916 37.7138 35.2186 37.7138C36.0456 37.7138 36.7957 36.9729 36.7837 36.1425V33H43.0447C43.9088 33 44.6098 32.2962 44.6098 31.4287C44.6098 30.5611 43.9088 29.8574 43.0447 29.8574H36.7837V28.2861H42.2618C46.0422 28.2861 49.305 25.1511 49.305 21.2149C49.305 17.2788 46.0415 14.1437 42.2618 14.1437H31.9408L31.9415 14.143ZM36.7837 17.2856H42.2618C44.285 17.2856 46.1748 19.0564 46.1748 21.2142C46.1748 23.372 44.285 25.1428 42.2618 25.1428H36.7837V17.2856Z" fill="#553BF9"/>
</svg>
