<svg width="79" height="58" viewBox="0 0 79 58" fill="none" xmlns="http://www.w3.org/2000/svg">
<path d="M62.4091 40.02C65.5085 42.0576 68.8057 43.7723 72.2502 45.1366L72.2542 45.1381C72.8699 45.3943 73.2525 46.0186 73.2073 46.6859C73.1621 47.3533 72.699 47.9191 72.0542 48.0892L72.0496 48.0904L34.6222 57.2064L62.4091 40.02ZM62.4091 40.02L72.0496 37.6719L72.0539 37.6708C72.6995 37.5014 73.1632 36.9349 73.2084 36.2668L73.2084 36.2666C73.2529 35.5981 72.8696 34.9745 72.2528 34.7185L72.249 34.717C68.231 33.1262 64.4154 31.0566 60.883 28.5544L77.3719 11.9153L77.3915 11.8956L77.4062 11.872C78.9378 9.4265 78.2256 6.72258 76.5475 5.02877C74.8692 3.3347 72.1869 2.61381 69.7596 4.16185L69.7361 4.17684L69.7165 4.19664L52.6346 21.4312C47.3613 15.8196 43.3508 9.12292 40.8795 1.79972L40.8791 1.79855C40.6186 1.03913 39.8258 0.601775 39.0483 0.795847L39.0477 0.795994L1.91509 10.1597L1.91347 10.1602C1.49599 10.2684 1.14296 10.5466 0.938437 10.9279C0.733415 11.3085 0.69521 11.7578 0.8315 12.1676L0.831492 12.1676L0.832174 12.1696C1.75469 14.8674 2.87741 17.4913 4.1903 20.0183C3.99118 20.0714 3.77199 20.1209 3.54113 20.1711C3.48399 20.1836 3.42615 20.196 3.36783 20.2086C3.07651 20.2714 2.77352 20.3368 2.48859 20.4118C2.14756 20.5015 1.81555 20.609 1.54419 20.7525C1.27599 20.8943 1.03243 21.0892 0.922279 21.3714L0.92216 21.3717C0.728928 21.748 0.696888 22.1877 0.833483 22.5884C3.49677 30.4095 7.81629 37.5521 13.4919 43.5198L13.6703 43.3501L13.4919 43.5198C19.1676 49.4867 26.0628 54.1358 33.698 57.1427M62.4091 40.02L33.6975 57.1425C33.6977 57.1425 33.6978 57.1426 33.698 57.1427M33.698 57.1427C33.9925 57.2592 34.3148 57.2815 34.622 57.2064L33.698 57.1427ZM30.1906 22.3887L24.3174 23.8509C23.4893 24.0576 22.6551 23.5471 22.452 22.7161C22.2486 21.886 22.7502 21.0437 23.5777 20.8379L29.7613 19.2983L29.7614 19.2983C30.5896 19.0924 31.4229 19.6029 31.6266 20.4331C31.7247 20.8325 31.6609 21.2547 31.4502 21.6066L30.1906 22.3887ZM30.1906 22.3887V22.3896L30.5012 22.3119C30.8983 22.2126 31.2393 21.9592 31.4502 21.6066L30.1906 22.3887ZM55.9343 29.1545L55.9174 29.1716L55.904 29.1915C55.5253 29.7579 54.816 30.0497 53.9728 30.1603C53.2053 30.2611 52.3724 30.2051 51.6924 30.1047C51.5911 29.42 51.5348 28.5806 51.6351 27.8062C51.7453 26.9558 52.0365 26.2386 52.6014 25.8534L52.6213 25.8399L52.6382 25.8228L71.6756 6.61444C72.2867 6.3813 72.9633 6.39271 73.5669 6.64763C74.1857 6.90903 74.6784 7.40625 74.9381 8.03205C75.191 8.64331 75.2021 9.32823 74.9698 9.94582L55.9343 29.1545ZM50.4367 23.6047C49.0013 24.8171 48.5682 26.6946 48.5087 28.3177C48.4462 30.0255 48.794 31.5221 48.9011 31.8425L48.9022 31.8456C48.9161 31.8954 48.9324 31.9442 48.951 31.9917L48.9582 32.0133H48.9596C49.14 32.4563 49.5158 32.7952 49.9832 32.922L49.9859 32.9227C51.0064 33.1871 52.055 33.3234 53.1077 33.3295C55.0189 33.467 56.8867 32.7126 58.1759 31.2845L58.6663 30.7897C61.2645 32.6661 64.0142 34.3201 66.8854 35.7342L34.37 43.6532C22.5364 39.2603 9.3366 27.0976 4.31234 12.7544L38.4401 4.14978C41.0847 11.3915 45.1675 18.0118 50.4367 23.6047ZM34.501 46.786L34.5616 46.8015L34.6224 46.7867L58.3745 41.0008C61.0597 42.963 63.9084 44.6868 66.888 46.1521L34.3703 54.0716C22.5383 49.6793 9.33702 37.5161 4.31415 23.1745L5.7345 22.8171C8.91511 28.4563 13.7608 33.8262 18.9595 38.0898C24.2069 42.3935 29.8354 45.5874 34.501 46.786ZM16.6685 16.2538V16.2538L16.6719 16.2538C16.7993 16.2545 16.9251 16.2384 17.0463 16.2079L17.0464 16.2079L31.443 12.594H31.4462L31.4785 12.5852C32.2891 12.3642 32.7737 11.5307 32.5715 10.7125C32.3699 9.89347 31.5537 9.38448 30.7338 9.57304L30.7338 9.57299L30.7289 9.57421L16.3023 13.1956L16.3023 13.1956L16.2979 13.1968C15.5537 13.3982 15.073 14.1195 15.1654 14.8866L15.1654 14.8868C15.2586 15.6546 15.8979 16.2392 16.6685 16.2538ZM18.8156 18.8958L18.8157 18.8963C19.0214 19.7256 19.8545 20.2346 20.6818 20.0293L20.6823 20.0292L35.1215 16.4194L35.1222 16.4193C35.9474 16.2107 36.4469 15.3687 36.2429 14.5399C36.0392 13.7109 35.2065 13.2011 34.3798 13.4057L34.3792 13.4059L19.9399 17.0157L19.9398 17.0157C19.1125 17.2228 18.6115 18.0656 18.8156 18.8958ZM30.0495 35.0028L30.0498 35.003C30.7195 35.5149 31.6724 35.3922 32.1922 34.7276L32.1934 34.726C32.9035 33.8023 34.001 33.2689 35.1577 33.2839C36.692 33.4022 38.1136 34.2511 39.6217 35.1517C39.7271 35.2146 39.8329 35.2778 39.9391 35.341C41.5393 36.2924 43.2421 37.2404 45.1864 37.1784C45.7327 37.2132 46.4112 37.1241 46.9295 36.8326C47.1939 36.6839 47.4273 36.4762 47.5709 36.1949C47.7161 35.9104 47.7581 35.5727 47.6756 35.188L47.6754 35.187C47.4945 34.3584 46.6861 33.829 45.8605 33.9997C44.2708 34.1042 42.6961 33.6276 41.4252 32.6574L41.4253 32.6573L41.4187 32.6526C39.658 31.3967 37.5587 30.4029 35.4871 30.2424C33.4 30.0807 31.3518 30.7674 29.7405 32.846L29.5671 33.0696L29.596 33.0868C29.2798 33.7403 29.4549 34.5473 30.0495 35.0028Z" fill="#553BF9" stroke="#553BF9" stroke-width="0.5"/>
</svg>
