<svg width="72" height="47" viewBox="0 0 72 47" fill="none" xmlns="http://www.w3.org/2000/svg">
<path d="M56.8509 32.2261C55.4381 29.149 50.3825 24.8779 45.4988 20.7517C42.7746 18.4515 40.2006 16.2772 38.5598 14.5634C38.149 14.1311 37.5337 13.9931 36.9908 14.1967C35.9798 14.5791 35.3555 14.8734 34.8638 15.1021C34.114 15.453 33.8619 15.5721 32.8509 15.6786C32.4039 15.7258 32.0021 15.9766 31.753 16.3647C29.632 19.6769 27.4358 19.3946 25.9687 18.8811C25.5006 18.7179 25.4168 18.5081 25.3716 18.3077C25.0567 16.9323 26.6377 13.7298 28.6863 11.5896C33.5616 6.49448 36.0753 5.21913 41.3855 7.69786C47.4094 10.5116 53.4458 12.7143 53.5056 12.7364C54.2946 13.0213 55.1434 12.589 55.4166 11.7712C55.6868 10.9534 55.2754 10.0606 54.4925 9.77526C54.4322 9.75322 48.5164 7.59465 42.6125 4.83379C35.7334 1.62184 31.9596 3.73691 26.5679 9.37078C24.5157 11.5142 21.7288 15.8508 22.449 19.0313C22.7579 20.3847 23.67 21.3877 25.026 21.8545C28.4253 23.0264 31.527 21.9043 33.8373 18.7023C34.7915 18.5486 35.3104 18.3231 36.0903 17.9564C36.372 17.8247 36.7025 17.6715 37.1405 17.4864C38.8567 19.1692 41.1724 21.1274 43.6113 23.1858C48.0215 26.9112 53.0222 31.1351 54.1472 33.5795C54.7022 34.7861 54.1051 35.5724 53.7002 35.9327C53.1061 36.4657 52.2935 36.6346 51.8525 36.312C51.3664 35.9642 50.7335 35.9421 50.2322 36.2553C49.728 36.5685 49.4462 37.1607 49.5095 37.7688C49.6115 38.7654 48.7386 39.3357 48.3604 39.5329C47.4001 40.0407 46.3981 39.9531 46.0234 39.5896C45.6036 39.1825 45.0004 39.0629 44.4665 39.2701C43.9327 39.4799 43.5605 39.994 43.5063 40.5894C43.4164 41.617 42.6871 42.6043 41.7363 42.9893C41.2773 43.1708 40.6113 43.281 40.0141 42.7102C39.6419 42.3593 39.1261 42.2245 38.643 42.3467C38.1538 42.4721 37.761 42.8419 37.5898 43.334C37.533 43.4908 37.4039 43.8669 35.9997 43.8669C35.0008 43.8669 33.2038 43.1619 32.3248 42.5539C31.2716 41.83 24.6687 36.6851 18.9661 31.6963C18.165 30.9913 16.7788 29.4811 15.5549 28.146C14.469 26.9615 13.4756 25.8867 12.9658 25.4355C12.327 24.8715 11.3818 24.956 10.8509 25.6206C10.317 26.2816 10.3949 27.272 11.0282 27.8296C11.4933 28.2403 12.3933 29.2333 13.3862 30.3145C14.7242 31.7743 16.1074 33.2851 17.0375 34.0998C22.6233 38.9852 29.3378 44.2586 30.6752 45.1766C31.7791 45.9351 34.1583 47 36.0005 47C37.4796 47 38.6167 46.6459 39.4056 45.9535C40.4618 46.3826 41.6617 46.3857 42.8168 45.9157C44.1818 45.3644 45.3039 44.2517 45.9397 42.9047C47.1215 43.168 48.475 42.9828 49.7045 42.3376C50.9073 41.7044 51.7772 40.7366 52.2096 39.6051C53.4034 39.6706 54.6334 39.2289 55.6505 38.3172C57.3717 36.7787 57.8457 34.3851 56.8498 32.226L56.8509 32.2261Z" fill="#553BF9"/>
<path d="M29.9996 6.26517H16.4994C15.6713 6.26517 14.9993 6.96705 14.9993 7.83207C14.9993 8.69708 15.6713 9.39896 16.4994 9.39896H29.9996C30.8278 9.39896 31.4998 8.69708 31.4998 7.83207C31.4998 6.96705 30.8278 6.26517 29.9996 6.26517Z" fill="#553BF9"/>
<path d="M61.2455 28.8917C60.7805 28.1741 59.8503 27.9768 59.1638 28.4657L54.7778 31.5429C54.0907 32.0255 53.9079 33.0002 54.37 33.7171C54.6608 34.1651 55.1349 34.4096 55.618 34.4096C55.9033 34.4096 56.1941 34.3251 56.4522 34.1431L60.8383 31.066C61.5243 30.5839 61.7071 29.6092 61.2455 28.8917Z" fill="#553BF9"/>
<path d="M51.933 36.369C50.8592 35.4856 46.0557 30.3495 43.086 27.1161C42.5129 26.4892 41.5621 26.4677 40.965 27.0689C40.3648 27.6674 40.3468 28.6605 40.9198 29.2841C41.6908 30.124 48.4921 37.5283 50.0731 38.8319C50.3458 39.0575 50.6763 39.1671 51.0002 39.1671C51.4412 39.1671 51.8821 38.9604 52.182 38.5686C52.6953 37.8919 52.5843 36.9046 51.9329 36.369L51.933 36.369Z" fill="#553BF9"/>
<path d="M45.9389 39.5113C44.1418 38.0105 39.6267 32.9999 38.6067 31.8406C38.0427 31.2011 37.0975 31.1639 36.4858 31.7467C35.8766 32.3326 35.8349 33.3262 36.3959 33.9619C36.4501 34.0212 41.8381 40.0974 44.0641 41.9585C44.3403 42.1872 44.6733 42.3 45.0003 42.3C45.4382 42.3 45.8762 42.0964 46.173 41.714C46.6888 41.0373 46.5838 40.05 45.939 39.5114L45.9389 39.5113Z" fill="#553BF9"/>
<path d="M39.9692 42.6672C37.8301 40.784 33.4531 35.9175 32.5984 34.9617C32.0313 34.3286 31.08 34.2945 30.4774 34.8867C29.8712 35.479 29.8416 36.4688 30.4056 37.102C31.6356 38.4774 35.8238 43.1151 38.0346 45.0639C38.3164 45.3115 38.6584 45.4337 39.0004 45.4337C39.4263 45.4337 39.8527 45.2428 40.1496 44.8761C40.6829 44.212 40.602 43.2247 39.9692 42.6672Z" fill="#553BF9"/>
<path d="M17.5319 3.56191C14.9609 1.01725 4.67958 0.193114 1.59009 0.00215394C1.16419 -0.0198777 0.770938 0.127526 0.471105 0.424952C0.170771 0.719759 0 1.13312 0 1.56589V29.7668C0 30.6318 0.672001 31.3337 1.50019 31.3337H10.5003C11.1482 31.3337 11.7243 30.8983 11.9252 30.2525C12.1441 29.5507 17.3132 12.9815 17.9942 4.83414C18.0334 4.35782 17.8651 3.88781 17.5322 3.56205L17.5319 3.56191ZM9.40465 28.2001H2.99964V3.24499C7.82062 3.64313 13.0228 4.50762 14.9127 5.46655C14.1182 12.329 10.5207 24.521 9.40465 28.2005V28.2001Z" fill="#553BF9"/>
<path d="M70.5002 3.13218C58.7223 3.13218 52.1875 6.28115 51.915 6.41289C51.5252 6.60383 51.2339 6.95792 51.1139 7.38754C50.9939 7.81664 51.0536 8.27773 51.2786 8.65963C53.1329 11.7777 58.9377 29.0932 60.0537 33.3166C60.2335 33.9965 60.8247 34.4665 61.4997 34.4665H70.4998C71.328 34.4665 72 33.7646 72 32.8996V4.69868C72.0005 3.83104 71.3285 3.13232 70.5003 3.13232L70.5002 3.13218ZM69.0006 31.3331H62.6227C61.2008 26.495 57.0006 13.8794 54.6577 8.66627C56.9469 7.85476 61.8638 6.46043 69.0013 6.28478L69.0006 31.3331Z" fill="#553BF9"/>
</svg>
