<svg width="56" height="66" viewBox="0 0 56 66" fill="none" xmlns="http://www.w3.org/2000/svg">
<path d="M27.8846 0.00410007C27.5895 0.0153559 27.2997 0.0854481 27.0324 0.210283L1.2435 12.5875C0.871905 12.7676 0.558386 13.048 0.338917 13.3964C0.118935 13.7449 0.0017533 14.1475 0.000213863 14.5588V16.897C-0.00800964 17.4859 0.221223 18.0533 0.636503 18.4728C1.05178 18.8923 1.61922 19.1287 2.21081 19.1287C2.8024 19.1287 3.36981 18.8923 3.78512 18.4728C4.2004 18.0533 4.42963 17.4859 4.4214 16.897V15.9572L27.9998 4.6344L51.5782 15.9572V24.4835C51.5782 40.8372 41.9429 54.7809 27.9998 61.318C14.058 54.7804 4.4214 40.8359 4.4214 24.4835C4.42963 23.8946 4.2004 23.3272 3.78512 22.9077C3.36984 22.4882 2.8024 22.2518 2.21081 22.2518C1.61922 22.2518 1.05181 22.4882 0.636503 22.9077C0.221223 23.3272 -0.00800964 23.8946 0.000213863 24.4835C0.000213863 42.9524 11.1065 58.7862 27.1022 65.8104C27.6738 66.0632 28.3265 66.0632 28.898 65.8104C44.8937 58.7874 56 42.9524 56 24.4835V14.559C55.9985 14.1477 55.8813 13.745 55.6613 13.3966C55.4418 13.0482 55.1283 12.7678 54.7567 12.5877L28.9678 0.21044C28.6301 0.0518409 28.258 -0.0187684 27.8854 0.0042572L27.8846 0.00410007ZM41.0553 21.9846C40.5599 22.0378 40.0978 22.2562 39.7426 22.6036L24.339 37.2494L17.7767 30.717C17.3748 30.259 16.8007 29.9869 16.19 29.9654C15.5794 29.9434 14.9873 30.1741 14.554 30.6024C14.1202 31.0311 13.8843 31.6189 13.9013 32.2267C13.9187 32.8345 14.1881 33.4081 14.645 33.8113L22.7503 41.8797C23.1568 42.2859 23.7073 42.5182 24.2834 42.5269C24.8596 42.5356 25.4167 42.3197 25.8356 41.9252L42.7826 25.7889C43.2395 25.3684 43.497 24.7749 43.4924 24.1552C43.4873 23.5357 43.22 22.9468 42.7559 22.5334C42.2923 22.12 41.675 21.9204 41.0557 21.9839L41.0553 21.9846Z" fill="#553BF9"/>
</svg>
