<svg width="56" height="70" viewBox="0 0 56 70" fill="none" xmlns="http://www.w3.org/2000/svg">
<path d="M51.9504 -0.000366211H4.05182C1.81608 -0.000366211 0 1.79052 0 3.98941V66.0085C0 68.2072 1.81664 69.9983 4.05182 69.9983L51.9504 69.9988C54.1834 69.9988 56 68.2079 56 66.009V3.98857C56 1.78982 54.1834 -0.000366211 51.9504 -0.000366211ZM53.5487 66.009C53.5487 66.8781 52.8302 67.585 51.9504 67.585H4.05182C3.16923 67.585 2.45132 66.8776 2.45132 66.009V3.98858C2.45132 3.11951 3.16975 2.41259 4.05182 2.41259H51.9504C52.8303 2.41259 53.5487 3.12002 53.5487 3.98858V66.009Z" fill="#553BF9"/>
<path d="M9.39769 57.9338H20.8893C21.5656 57.9338 22.115 57.3928 22.115 56.7269V45.4134C22.115 44.7475 21.5656 44.2065 20.8893 44.2065H9.39769C8.72139 44.2065 8.17204 44.7475 8.17204 45.4134V56.7269C8.17204 57.3934 8.71865 57.9338 9.39769 57.9338ZM10.6233 46.6203H19.6636V55.52H10.6233V46.6203Z" fill="#553BF9"/>
<path d="M43.3786 44.2065H27.8148C27.1385 44.2065 26.5892 44.7475 26.5892 45.4134C26.5892 46.0794 27.1385 46.6203 27.8148 46.6203H43.3786C44.0549 46.6203 44.6042 46.0794 44.6042 45.4134C44.6042 44.7475 44.0554 44.2065 43.3786 44.2065Z" fill="#553BF9"/>
<path d="M46.2326 14.5862H9.39708C8.72078 14.5862 8.17142 15.1271 8.17142 15.7931C8.17142 16.459 8.72078 17 9.39708 17H46.2326C46.9089 17 47.4583 16.459 47.4583 15.7931C47.4583 15.1266 46.9094 14.5862 46.2326 14.5862Z" fill="#553BF9"/>
<path d="M39.3355 34.4135H2.50001C1.82371 34.4135 1.27435 34.9544 1.27435 35.6204C1.27435 36.2863 1.82371 36.8272 2.50001 36.8272H39.3355C40.0118 36.8272 40.5612 36.2863 40.5612 35.6204C40.5612 34.9544 40.0124 34.4135 39.3355 34.4135Z" fill="#553BF9"/>
<path d="M46.2326 7.58585H27.8148H9.39708C8.72078 7.58585 8.17142 8.12681 8.17142 8.79275C8.17142 9.45869 8.72078 9.99963 9.39708 9.99963H46.2326C46.9089 9.99963 47.4583 9.45869 47.4583 8.79275C47.4583 8.12681 46.9094 7.58585 46.2326 7.58585Z" fill="#553BF9"/>
<path d="M46.5 61.9997H9.6645C8.9882 61.9997 8.43884 62.5406 8.43884 63.2066C8.43884 63.8725 8.9882 64.4135 9.6645 64.4135H46.5C47.1763 64.4135 47.7257 63.8725 47.7257 63.2066C47.7257 62.5406 47.1769 61.9997 46.5 61.9997Z" fill="#553BF9"/>
<path d="M54.0612 34.4135H17.2257C16.5494 34.4135 16 34.9544 16 35.6204C16 36.2863 16.5494 36.8272 17.2257 36.8272H54.0612C54.7375 36.8272 55.2868 36.2863 55.2868 35.6204C55.2868 34.9544 54.738 34.4135 54.0612 34.4135Z" fill="#553BF9"/>
<path d="M43.3786 49.5858H27.8148C27.1385 49.5858 26.5892 50.1268 26.5892 50.7927C26.5892 51.4587 27.1385 51.9996 27.8148 51.9996H43.3786C44.0549 51.9996 44.6042 51.4587 44.6042 50.7927C44.6042 50.1268 44.0554 49.5858 43.3786 49.5858Z" fill="#553BF9"/>
<path d="M43.3786 54.9996H27.8148C27.1385 54.9996 26.5892 55.5406 26.5892 56.2065C26.5892 56.8725 27.1385 57.4134 27.8148 57.4134H43.3786C44.0549 57.4134 44.6042 56.8725 44.6042 56.2065C44.6042 55.5406 44.0554 54.9996 43.3786 54.9996Z" fill="#553BF9"/>
<path d="M46.2894 27.5H30.7257C30.0494 27.5 29.5 28.0409 29.5 28.7069C29.5 29.3728 30.0494 29.9138 30.7257 29.9138H46.2894C46.9657 29.9138 47.515 29.3728 47.515 28.7069C47.515 28.0409 46.9662 27.5 46.2894 27.5Z" fill="#553BF9"/>
</svg>
