<svg width="56" height="70" viewBox="0 0 56 70" fill="none" xmlns="http://www.w3.org/2000/svg">
<path d="M51.9504 0H4.05181C1.81607 0 0 1.79089 0 3.98978V66.0089C0 68.2076 1.81663 69.9986 4.05181 69.9986L51.9504 69.9992C54.1834 69.9992 56 68.2083 56 66.0094V3.98894C56 1.79019 54.1834 0 51.9504 0ZM53.5487 66.0094C53.5487 66.8785 52.8303 67.5854 51.9504 67.5854H4.05181C3.16922 67.5854 2.45131 66.878 2.45131 66.0094V3.98895C2.45131 3.11988 3.16974 2.41296 4.05181 2.41296H51.9504C52.8303 2.41296 53.5487 3.12039 53.5487 3.98895V66.0094Z" fill="#553BF9"/>
<path d="M46.1962 25.5862H9.36066C8.68437 25.5862 8.13501 26.1272 8.13501 26.7931C8.13501 27.459 8.68437 28 9.36066 28H46.1962C46.8725 28 47.4218 27.459 47.4218 26.7931C47.4218 26.1266 46.873 25.5862 46.1962 25.5862Z" fill="#553BF9"/>
<path d="M46.261 34.0862H9.42544C8.74915 34.0862 8.19979 34.6272 8.19979 35.2931C8.19979 35.9591 8.74915 36.5 9.42544 36.5H46.261C46.9373 36.5 47.4866 35.9591 47.4866 35.2931C47.4866 34.6272 46.9378 34.0862 46.261 34.0862Z" fill="#553BF9"/>
<path d="M46.2326 51.0863H9.39707C8.72077 51.0863 8.17141 51.6272 8.17141 52.2931C8.17141 52.9591 8.72077 53.5 9.39707 53.5H46.2326C46.9089 53.5 47.4582 52.9591 47.4582 52.2931C47.4582 51.6272 46.9094 51.0863 46.2326 51.0863Z" fill="#553BF9"/>
<path d="M46.2326 42.5H27.8148H9.39707C8.72077 42.5 8.17141 43.041 8.17141 43.7069C8.17141 44.3728 8.72077 44.9138 9.39707 44.9138C23.7822 44.9138 31.8474 44.9138 46.2326 44.9138C46.9089 44.9138 47.4582 44.3728 47.4582 43.7069C47.4582 43.041 46.9094 42.5 46.2326 42.5Z" fill="#553BF9"/>
<path d="M46.5 59.5863H9.66449C8.98819 59.5863 8.43883 60.1272 8.43883 60.7931C8.43883 61.4591 8.98819 62 9.66449 62H46.5C47.1763 62 47.7257 61.4591 47.7257 60.7931C47.7257 60.1272 47.1768 59.5863 46.5 59.5863Z" fill="#553BF9"/>
<path d="M46.5 17.0862H9.66449C8.98819 17.0862 8.43883 17.6272 8.43883 18.2931C8.43883 18.959 8.98819 19.5 9.66449 19.5H28.0822H46.5C47.1763 19.5 47.7257 18.959 47.7257 18.2931C47.7257 17.6266 47.1768 17.0862 46.5 17.0862Z" fill="#553BF9"/>
<path d="M46.5 8.5H9.66449C8.98819 8.5 8.43883 9.04095 8.43883 9.70689C8.43883 10.3728 8.98819 10.9138 9.66449 10.9138H28.0822H46.5C47.1763 10.9138 47.7257 10.3728 47.7257 9.70689C47.7257 9.04041 47.1768 8.5 46.5 8.5Z" fill="#553BF9"/>
</svg>
